<svg width="89" height="95" viewBox="0 0 89 95" fill="none" xmlns="http://www.w3.org/2000/svg">
<path d="M87.7924 92.9806H81.0438V78.3968C81.0438 72.1379 77.0497 66.6594 71.0968 64.7312L62.8944 62.0685C62.8944 62.0685 62.8791 62.0685 62.8791 62.0532L60.1092 61.1503L55.35 59.6047V54.4782C58.4718 51.3717 60.8132 46.9797 61.8232 41.8685C63.9503 40.8891 65.3582 38.7161 65.3582 36.3288C65.3582 35.8391 65.2816 35.3494 65.1592 34.875H66.2304H66.2457C67.2251 34.875 68.1586 34.4924 68.8625 33.8038C69.5665 33.0998 69.9491 32.1817 69.9491 31.187C69.9491 30.1923 69.5665 29.2588 68.8779 28.5549C68.1739 27.8509 67.2557 27.4683 66.261 27.453H65.8326V25.632C65.8326 23.2906 65.45 21.0105 64.7154 18.8374C63.6901 15.7309 61.915 12.8692 59.5736 10.5432C59.2675 10.2371 58.9462 9.93106 58.6401 9.68621C56.7426 8.01818 54.5389 6.70212 52.121 5.76864V3.62621C52.121 1.89697 50.7132 0.504395 48.9992 0.504395H40.0163C38.2871 0.504395 36.8945 1.91227 36.8945 3.62621V5.76864C34.4613 6.70212 32.2577 8.01818 30.3601 9.71682C27.5444 12.1959 25.4326 15.3636 24.2848 18.868C23.535 21.0411 23.1677 23.3212 23.1677 25.6626V27.3459H22.7698H22.7545C20.7192 27.3459 19.0512 28.9986 19.0512 31.0339C19.0512 33.0845 20.7039 34.7526 22.7392 34.7526H23.8716C23.7339 35.2729 23.6421 35.7932 23.6421 36.3441C23.6421 38.7314 25.05 40.9044 27.1771 41.8838C28.1871 46.995 30.5285 51.387 33.6503 54.4935V59.62L26.1671 62.0532L17.9035 64.7312C11.9506 66.6441 7.95649 72.1379 7.95649 78.3968V92.9806H1.22316C0.794674 92.9806 0.458008 93.3173 0.458008 93.7458C0.458008 94.1742 0.794674 94.5109 1.22316 94.5109H8.72164H39.8939H49.1216H80.2939H87.8077C88.2362 94.5109 88.5729 94.1742 88.5729 93.7458C88.5729 93.3173 88.2209 92.9806 87.7924 92.9806ZM59.4359 62.5582L61.4559 63.2162L53.8962 74.8465C53.6972 75.1679 53.3759 75.3821 53.0086 75.4433C52.6413 75.5198 52.2588 75.428 51.9527 75.2138L48.8768 73.0101L45.6479 70.6994L50.6826 65.3892L54.8144 61.0432L59.4359 62.5582ZM47.9433 74.2344L48.8768 75.1679L46.4589 77.5858H42.526L40.1082 75.1679L40.9957 74.2803L44.5001 71.7706L47.9433 74.2344ZM35.1653 59.8801V55.8861C36.6956 57.1103 38.3483 58.0132 40.0623 58.5947H40.0776C40.506 58.7477 40.9498 58.8702 41.3936 58.962C41.4701 58.9773 41.5466 58.9926 41.6232 59.0079C42.0057 59.0844 42.3883 59.1456 42.7709 59.2068C42.878 59.2221 42.9698 59.2374 43.0769 59.2527C43.5513 59.2986 44.0257 59.3292 44.5001 59.3292C44.9745 59.3292 45.4489 59.2986 45.908 59.2527C46.0151 59.2374 46.1223 59.2221 46.2294 59.2068C46.6119 59.1609 46.9945 59.0997 47.3618 59.0232C47.4536 59.0079 47.5301 58.9926 47.6219 58.962C48.0504 58.8702 48.4789 58.7477 48.8921 58.61C48.9227 58.5947 48.938 58.5947 48.9686 58.5794C50.3765 58.105 51.7232 57.4011 53.0239 56.4829C53.0392 56.4676 53.0392 56.4676 53.0545 56.4523C53.3147 56.2686 53.5901 56.0697 53.835 55.8708V59.8648L48.9533 65.022L44.5001 69.72L35.1653 59.8801ZM58.5024 11.6603C60.4918 13.6344 62.0068 16.037 62.9862 18.6385L55.3041 21.1941L58.4871 11.645C58.4871 11.6603 58.5024 11.6603 58.5024 11.6603ZM30.5285 11.7062L33.6962 21.2094L26.0141 18.6538C26.9935 16.0523 28.5391 13.6956 30.5285 11.7062ZM24.6827 25.6626C24.6827 23.7497 24.9735 21.8827 25.5091 20.0923L34.6603 23.1376C34.7368 23.1682 34.8133 23.1835 34.9051 23.1835C35.1041 23.1835 35.303 23.107 35.4407 22.9539C35.6397 22.755 35.7162 22.4489 35.6244 22.1735L31.7527 10.5585C33.283 9.25773 34.9969 8.21712 36.8792 7.43667V12.5326C36.8792 12.9611 37.2159 13.2977 37.6444 13.2977C38.0729 13.2977 38.4095 12.9611 38.4095 12.5326V3.62621C38.4095 2.73864 39.1288 2.0347 40.001 2.0347H48.9839C49.8715 2.0347 50.5754 2.75394 50.5754 3.62621V12.5173C50.5754 12.9458 50.9121 13.2824 51.3406 13.2824C51.7691 13.2824 52.1057 12.9458 52.1057 12.5173V7.42136C53.988 8.20182 55.7019 9.24242 57.2476 10.5432L53.3759 22.1582C53.2841 22.4336 53.3606 22.7397 53.5595 22.9386C53.7125 23.0917 53.8962 23.1682 54.0951 23.1682C54.1716 23.1682 54.2635 23.1529 54.34 23.1223L63.4912 20.077C64.0268 21.8674 64.3176 23.7344 64.3176 25.6473V27.3306H24.6827V25.6626ZM22.7392 33.2376C21.5456 33.2376 20.5662 32.2582 20.5662 31.0492C20.5662 30.4677 20.7957 29.9168 21.2089 29.5189C21.6221 29.1058 22.1577 28.8915 22.7392 28.8915C22.7392 28.8915 22.7392 28.8915 22.7545 28.8915L66.261 29.0292C67.4547 29.0292 68.4341 30.0086 68.4341 31.2176C68.4341 31.7991 68.2045 32.35 67.7913 32.7479C67.3782 33.1611 66.8426 33.3753 66.261 33.3753C66.261 33.3753 66.261 33.3753 66.2457 33.3753L22.7392 33.2376ZM28.6003 41.2105C28.5391 40.9503 28.3707 40.7208 28.1106 40.6289C26.3507 39.9709 25.1724 38.257 25.1724 36.3594C25.1724 35.8085 25.2642 35.2729 25.4479 34.7679L63.583 34.8903C63.7513 35.3647 63.8279 35.8544 63.8279 36.3594C63.8279 38.257 62.6495 39.9709 60.8897 40.6289C60.6448 40.7208 60.4153 40.935 60.4 41.2105C59.6807 56.6971 35.4407 68.2815 28.6003 41.2105ZM34.1706 61.0585L43.3371 70.7147L37.0323 75.2291C36.7262 75.4433 36.3589 75.5351 35.9763 75.4586C35.6091 75.3821 35.2877 75.1679 35.0888 74.8618L27.5291 63.2315L34.1706 61.0585ZM39.2206 92.9806H9.47149V78.3968C9.47149 72.8112 13.0371 67.8989 18.3626 66.185L26.0141 63.7059L33.8033 75.6882C34.2318 76.3615 34.9051 76.8053 35.7009 76.9583C35.8845 76.9889 36.0682 77.0042 36.2518 77.0042C36.8486 77.0042 37.4301 76.8206 37.9351 76.4686L38.7003 75.9177L41.3936 78.6111L39.2206 92.9806ZM40.7662 92.9806L42.8627 79.1161H46.1376L48.2341 92.9806H40.7662ZM79.5135 92.9806H49.7644L47.5913 78.6111L50.2847 75.9177L51.0498 76.4686C51.5548 76.8206 52.1363 77.0042 52.7332 77.0042C52.9168 77.0042 53.1004 76.9889 53.2841 76.9583C54.0645 76.8053 54.7379 76.3615 55.1816 75.6882L62.9709 63.7059L70.6224 66.185C75.9479 67.8989 79.5135 72.7959 79.5135 78.3968V92.9806Z" fill="#3451E0"/>
</svg>
