<svg width="49" height="49" viewBox="0 0 49 49" fill="none" xmlns="http://www.w3.org/2000/svg">
<g clip-path="url(#clip0_2212_118)">
<path d="M30.5098 7.65625C33.107 8.3533 35.4753 9.72124 37.3768 11.6228C39.2784 13.5243 40.6463 15.8926 41.3434 18.4898" stroke="#04AEFF" stroke-width="2" stroke-linecap="round" stroke-linejoin="round"/>
<path d="M28.9219 13.5708C30.484 13.9857 31.9087 14.8061 33.0515 15.949C34.1944 17.0918 35.0148 18.5165 35.4297 20.0786" stroke="#04AEFF" stroke-width="2" stroke-linecap="round" stroke-linejoin="round"/>
<path d="M17.7051 23.8875C19.2808 27.1414 21.912 29.7658 25.1699 31.3332C25.4102 31.447 25.6761 31.4962 25.9412 31.4761C26.2063 31.4559 26.4617 31.3671 26.682 31.2183L31.4672 28.0218C31.6786 27.8785 31.9229 27.791 32.1773 27.7675C32.4317 27.7441 32.6878 27.7855 32.9219 27.8879L41.8797 31.7351C42.1858 31.8626 42.4416 32.0871 42.6076 32.3741C42.7736 32.6612 42.8407 32.9949 42.7984 33.3238C42.5145 35.5398 41.4329 37.5764 39.7559 39.0525C38.079 40.5287 35.9216 41.3432 33.6875 41.3437C26.7836 41.3437 20.1624 38.6011 15.2806 33.7193C10.3988 28.8375 7.65625 22.2164 7.65625 15.3125C7.65675 13.0784 8.47129 10.921 9.94743 9.24404C11.4236 7.56708 13.4602 6.48545 15.6762 6.20153C16.0051 6.15928 16.3388 6.22633 16.6258 6.39234C16.9129 6.55835 17.1374 6.81413 17.2648 7.12028L21.1121 16.0972C21.2122 16.3276 21.254 16.579 21.234 16.8294C21.214 17.0797 21.1327 17.3213 20.9973 17.5328L17.8008 22.3945C17.6585 22.6144 17.5749 22.8671 17.5582 23.1285C17.5414 23.3899 17.592 23.6512 17.7051 23.8875Z" stroke="#04AEFF" stroke-width="2" stroke-linecap="round" stroke-linejoin="round"/>
</g>
<defs>
<clipPath id="clip0_2212_118">
<rect width="49" height="49" fill="white"/>
</clipPath>
</defs>
</svg>
