<svg width="18" height="18" viewBox="0 0 18 18" fill="none" xmlns="http://www.w3.org/2000/svg">
<path d="M10.125 6.75V5.41055C10.125 4.80586 10.2586 4.5 11.1973 4.5H12.375V2.25H10.4098C8.00156 2.25 7.20703 3.35391 7.20703 5.24883V6.75H5.625V9H7.20703V15.75H10.125V9H12.1078L12.375 6.75H10.125ZM11.6086 8.4375H10.1637H9.5625V8.98242V15.1875H7.76953V8.98242V8.4375H7.2457H6.1875V7.3125H7.2457H7.76953V6.73242V5.24883C7.76953 4.3875 7.95937 3.80039 8.31445 3.42773C8.7082 3.00586 9.40781 2.8125 10.4098 2.8125H11.8125V3.9375H11.1973C10.7754 3.9375 10.2305 3.97617 9.89297 4.34883C9.6082 4.66523 9.5625 5.05547 9.5625 5.40703V6.72891V7.3125H10.1637H11.7422L11.6086 8.4375Z" fill="white"/>
</svg>
