<svg width="100" height="100" viewBox="0 0 100 100" fill="none" xmlns="http://www.w3.org/2000/svg">
<path d="M81.5 21.875C81.5 21.875 68.75 19.625 65.125 18.375C60.0018 16.9563 55.2112 14.5345 51.0312 11.25C50.7534 10.9817 50.386 10.8259 50 10.8125C49.5821 10.8052 49.1781 10.9623 48.875 11.25C44.7354 14.5612 39.9596 16.9864 34.8437 18.375C31.25 19.625 18.75 21.875 18.5 21.875C18.1356 21.9341 17.8039 22.1202 17.5636 22.4005C17.3234 22.6808 17.1901 23.0371 17.1875 23.4062C17.1875 48.7188 17.5 60.4062 25.25 72.3125C31.875 82.5 48.6875 88.6875 49.4062 88.9687C49.5819 89.001 49.7619 89.001 49.9375 88.9687H50.4688C51.1875 88.6875 68.125 82.5 74.75 72.3125C82.5 60.4062 82.8125 48.7188 82.8125 23.4062C82.8099 23.0371 82.6766 22.6808 82.4364 22.4005C82.1961 22.1202 81.8644 21.9341 81.5 21.875ZM72.125 70.625C66.6875 78.9688 52.8125 84.6875 49.9375 85.8125C47.0625 84.6875 33.3125 78.9688 27.875 70.625C21 60.0625 20.3438 50.625 20.3125 24.7188C25.5726 23.955 30.7883 22.9119 35.9375 21.5938C40.9762 19.958 45.7229 17.5319 50 14.4063C54.3249 17.4483 59.1023 19.7895 64.1563 21.3438C69.3055 22.6615 74.5212 23.7047 79.7813 24.4688C79.6563 50.5 79 59.9375 72.125 70.5V70.625Z" fill="#3451E0"/>
<path d="M35.3754 51.4688C35.2226 51.3329 35.0443 51.2291 34.8508 51.1633C34.6573 51.0974 34.4525 51.071 34.2487 51.0856C34.0448 51.1002 33.8459 51.1554 33.6637 51.248C33.4815 51.3407 33.3197 51.4689 33.1879 51.625C32.9233 51.9461 32.7948 52.358 32.8299 52.7726C32.8649 53.1871 33.0607 53.5716 33.3754 53.8438L49.0004 67.1875C49.2748 67.4336 49.6318 67.5674 50.0004 67.5625H50.2191C50.4393 67.5306 50.6504 67.453 50.8388 67.3345C51.0271 67.2161 51.1886 67.0596 51.3129 66.875L69.5004 40.1875C69.7366 39.8436 69.8265 39.4199 69.7503 39.0096C69.6741 38.5994 69.4381 38.2362 69.0941 38C68.7502 37.7638 68.3265 37.6739 67.9162 37.7501C67.506 37.8263 67.1428 38.0623 66.9066 38.4063L49.6879 63.6875L35.3754 51.4688Z" fill="#3451E0"/>
</svg>
