<svg width="14" height="15" viewBox="0 0 18 18" fill="none" xmlns="http://www.w3.org/2000/svg">
<g clip-path="url(#clip0_2164_30)">
<path d="M9 11.8125C10.5533 11.8125 11.8125 10.5533 11.8125 9C11.8125 7.4467 10.5533 6.1875 9 6.1875C7.4467 6.1875 6.1875 7.4467 6.1875 9C6.1875 10.5533 7.4467 11.8125 9 11.8125Z" stroke="white" stroke-linecap="round" stroke-linejoin="round"/>
<path d="M12.0938 2.53125H5.90625C4.04229 2.53125 2.53125 4.04229 2.53125 5.90625V12.0938C2.53125 13.9577 4.04229 15.4688 5.90625 15.4688H12.0938C13.9577 15.4688 15.4688 13.9577 15.4688 12.0938V5.90625C15.4688 4.04229 13.9577 2.53125 12.0938 2.53125Z" stroke="white" stroke-linecap="round" stroke-linejoin="round"/>
<path d="M12.6562 6.04688C13.0446 6.04688 13.3594 5.73208 13.3594 5.34375C13.3594 4.95542 13.0446 4.64062 12.6562 4.64062C12.2679 4.64062 11.9531 4.95542 11.9531 5.34375C11.9531 5.73208 12.2679 6.04688 12.6562 6.04688Z" fill="white"/>
</g>
<defs>
<clipPath id="clip0_2164_30">
<rect width="18" height="18" fill="white"/>
</clipPath>
</defs>
</svg>
