<svg width="13" height="13" viewBox="0 -2 13 20" fill="none" xmlns="http://www.w3.org/2000/svg">
<g clip-path="url(#clip0_2164_25)">
<path d="M1.52507 0C0.641408 0 0 0.622705 0 1.48052C0 2.33782 0.628708 2.9601 1.49469 2.9601C1.94384 2.9601 2.33085 2.81135 2.61397 2.52975C2.88551 2.25964 3.03523 1.88702 3.03495 1.47376C3.01506 0.606055 2.3941 0 1.52507 0ZM2.21952 2.11537C2.04411 2.28984 1.7933 2.38199 1.49469 2.38199C0.947746 2.38199 0.565722 2.01137 0.565722 1.48052C0.565722 0.940836 0.951339 0.578104 1.52507 0.578104C2.0861 0.578104 2.45653 0.935026 2.46923 1.48067C2.46923 1.7298 2.38056 1.95518 2.21952 2.11537Z" fill="white"/>
<path d="M0.271484 13H2.81392V3.44849H0.271484V13ZM0.837206 4.02659H2.24819V12.4219H0.837206V4.02659Z" fill="white"/>
<path d="M9.51809 3.44849C8.33912 3.44849 7.61732 3.86426 7.19911 4.25538L7.11958 3.44849H4.24316V13H7.06017V7.97987C7.06017 7.76366 7.14579 7.31467 7.19967 7.19613C7.53998 6.44711 7.99907 6.44711 8.69434 6.44711C9.49515 6.44711 10.1716 7.21449 10.1716 8.12272V13H13.0003V7.60332C13.0003 4.74864 11.1951 3.44849 9.51809 3.44849ZM12.4345 12.4219H10.7374V8.12272C10.7374 6.90101 9.80177 5.86901 8.69434 5.86901C7.98388 5.86901 7.17866 5.86901 6.68642 6.95281C6.58476 7.1768 6.49445 7.71368 6.49445 7.97987V12.4219H4.80889V4.02659H6.60799L6.72345 5.19563H7.18695L7.26982 5.059C7.45849 4.74864 8.05516 4.02659 9.51809 4.02659C10.9227 4.02659 12.4345 5.1458 12.4345 7.60332V12.4219Z" fill="white"/>
</g>
<defs>
<clipPath id="clip0_2164_25">
<rect width="13" height="13" fill="white"/>
</clipPath>
</defs>
</svg>
