<svg width="49" height="49" viewBox="0 0 49 49" fill="none" xmlns="http://www.w3.org/2000/svg">
<path d="M24.6634 0.48999C14.8634 0.48999 8.33008 7.02332 8.33008 16.4967C8.33008 29.2367 20.0901 45.08 23.1934 48.1833C23.3567 48.3467 23.6834 48.51 24.0101 48.51C24.3367 48.51 24.6634 48.3467 24.8267 48.02C26.4601 46.2233 40.5067 29.89 40.5067 16.4967C40.6701 5.38999 32.6667 0.48999 24.6634 0.48999ZM24.0101 45.4067C20.2534 40.9967 10.7801 27.2767 10.7801 16.4967C10.7801 8.16666 16.1701 2.93999 24.6634 2.93999C30.8701 2.93999 38.2201 6.53332 38.2201 16.4967C38.2201 26.1333 29.7267 38.8733 24.0101 45.4067ZM24.5001 9.96332C20.9067 9.96332 17.9667 12.9033 17.9667 16.4967C17.9667 20.09 20.9067 23.03 24.5001 23.03C28.0934 23.03 31.0334 20.09 31.0334 16.4967C31.0334 12.9033 28.0934 9.96332 24.5001 9.96332ZM24.5001 20.58C22.2134 20.58 20.4167 18.7833 20.4167 16.4967C20.4167 14.21 22.2134 12.4133 24.5001 12.4133C26.7867 12.4133 28.5834 14.21 28.5834 16.4967C28.5834 18.7833 26.7867 20.58 24.5001 20.58Z" fill="#04AEFF"/>
</svg>
