<svg width="95" height="97" viewBox="0 0 95 97" fill="none" xmlns="http://www.w3.org/2000/svg">
<path d="M68.4889 38.1238C68.4889 36.9008 67.7393 35.8356 66.6346 35.3621C59.2174 32.2453 53.4178 26.4852 50.2615 19.068C49.7881 17.9238 48.6834 17.2137 47.4604 17.2137C46.2373 17.2137 45.1721 17.9238 44.6592 19.068C41.5424 26.4457 35.7428 32.2059 28.365 35.3227C27.2604 35.7961 26.5107 36.8613 26.5107 38.0844C26.5107 39.3074 27.2209 40.3727 28.3256 40.8856C35.4271 44.0024 41.3451 49.9992 44.6197 57.377C45.0932 58.4817 46.1978 59.1918 47.3814 59.1918C48.565 59.1918 49.6697 58.4817 50.1432 57.3375C53.2205 50.1965 59.2568 44.1996 66.6346 40.925C67.7787 40.4121 68.4889 39.3074 68.4889 38.1238ZM47.3814 54.2996C43.8701 47.277 38.1494 41.5168 31.3635 38.1238C38.3861 34.7309 44.0279 29.1285 47.4209 22.1059C50.8533 29.168 56.4951 34.8098 63.5967 38.1633C56.574 41.7141 50.7744 47.4742 47.3814 54.2996Z" fill="#3451E0"/>
<path d="M66.3582 69.3313C66.7132 69.4496 67.1867 69.6074 67.7785 69.568C68.7253 69.5285 69.5933 69.134 70.264 68.4633C70.9742 67.7531 71.3687 66.8063 71.3293 65.8199C71.2503 59.5863 75.1957 54.1418 81.1136 52.2875C81.5082 52.1691 81.9421 51.9719 82.2578 51.6957C83.0468 51.1039 83.5597 50.2359 83.6781 49.3285C83.8359 48.3422 83.5992 47.3559 83.0074 46.5273C79.2988 41.5168 79.2593 34.8098 82.9679 29.8781L83.4414 29.3258L83.6386 28.734C83.9543 27.7871 83.8359 26.7613 83.4019 25.9328C82.9285 25.0254 82.1394 24.3547 81.232 24.0785C75.314 22.1848 71.4082 16.7797 71.4476 10.5855C71.4476 10.1121 71.3687 9.67812 71.2503 9.28359C70.9347 8.37617 70.264 7.62656 69.3566 7.15312C68.4492 6.71914 67.5023 6.67968 66.5949 6.99531C65.1351 7.5082 63.6359 7.74492 62.0972 7.74492C57.5601 7.74492 53.2992 5.53554 50.6953 1.8664C50.4191 1.51132 50.1035 1.1957 49.8273 0.998431C48.1703 -0.185162 45.8425 0.209369 44.6589 1.8664C42.055 5.57499 37.7941 7.74492 33.257 7.74492C31.7183 7.74492 30.2191 7.5082 28.7988 6.99531C27.5363 6.56132 25.9187 6.87695 24.9718 7.90273C24.2617 8.61289 23.8671 9.55976 23.9066 10.5461C23.9855 16.7797 20.0402 22.1848 14.1617 24.0391C13.7277 24.1574 13.3726 24.3547 12.9781 24.6309C11.3605 25.8539 11.0054 28.1816 12.2285 29.8387C15.9371 34.8492 15.9371 41.5562 12.2285 46.5668C11.9917 46.8824 11.7945 47.277 11.6761 47.632C11.4 48.5789 11.4789 49.5258 11.9523 50.4727C12.4257 51.3406 13.2148 52.0113 14.1222 52.2875C20.0402 54.1813 23.946 59.6258 23.8671 65.741C23.8277 66.2145 23.9066 66.6484 24.0644 67.0824C24.38 67.9898 25.0507 68.7395 25.9582 69.2129C26.8656 69.6469 27.8125 69.6863 28.7199 69.3707C30.2191 68.8578 31.7578 68.6211 33.2964 68.6211C37.873 68.6211 41.9761 70.791 44.6589 74.5391C44.8957 74.8547 45.2113 75.1703 45.5269 75.407C46.1582 75.8805 46.9078 76.1172 47.6574 76.1172C47.8546 76.1172 48.0914 76.1172 48.2886 76.0777C49.275 75.9199 50.1429 75.3676 50.6953 74.5785C54.0882 69.4496 60.4402 67.3586 66.3582 69.3313ZM47.539 72.3297C44.225 67.6348 38.8199 64.8336 33.0992 64.8336C31.166 64.8336 29.2328 65.1492 27.4179 65.8594C27.5363 58.0082 22.5257 51.1039 15.0691 48.8156C19.764 42.4637 19.764 33.9418 15.0296 27.7082C22.5257 25.3805 27.5363 18.5551 27.4968 10.6644C29.2722 11.2562 31.166 11.5719 33.0597 11.5719C38.8199 11.5719 44.225 8.7707 47.4207 4.07578C50.7347 8.7707 56.1793 11.5719 61.9394 11.5719C63.8726 11.5719 65.8058 11.2562 67.5418 10.5855C67.4628 18.3578 72.3945 25.1832 79.8117 27.6293C75.1957 33.9418 75.1957 42.3453 79.8117 48.6973C72.355 51.1039 67.3839 57.9688 67.5418 65.741H67.5023C60.0851 63.216 51.9578 65.8594 47.539 72.3297Z" fill="#3451E0"/>
<path d="M35.2301 74.3418C34.3621 73.7894 33.1785 74.0261 32.6262 74.8941L23.3941 89.0183L18.3047 78.6027L7.73125 78.5632L17.3973 63.7683C17.9891 62.9004 17.7129 61.7168 16.8449 61.1644C15.977 60.5726 14.7934 60.8488 14.241 61.7168L0.748047 82.3507L15.977 82.3902L22.9602 96.6722L35.8219 76.9457C36.3742 76.0777 36.098 74.8941 35.2301 74.3418Z" fill="#3451E0"/>
<path d="M80.7594 61.6774C80.1676 60.8094 79.0235 60.5727 78.1555 61.125C77.2876 61.7168 77.0508 62.861 77.6032 63.7289L87.3086 78.5633L76.7352 78.6027L71.6458 89.0184L62.3743 74.8547C61.7825 73.9867 60.6383 73.75 59.7704 74.3024C58.9024 74.8941 58.6657 76.0383 59.218 76.9063L72.1192 96.6723L79.1024 82.3902L94.3313 82.3508L80.7594 61.6774Z" fill="#3451E0"/>
</svg>
