<svg width="49" height="49" viewBox="0 0 49 49" fill="none" xmlns="http://www.w3.org/2000/svg">
<path d="M48.0205 26.46C48.0205 23.7581 45.8223 21.56 43.1205 21.56H41.1605V18.62C41.1605 9.43344 33.687 1.95996 24.5005 1.95996C15.3139 1.95996 7.84047 9.43344 7.84047 18.62V21.56H5.88047C3.17861 21.56 0.980469 23.7581 0.980469 26.46V32.34C0.980469 35.0418 3.17861 37.24 5.88047 37.24H11.7605V21.56H9.80047V18.62C9.80047 10.5144 16.3949 3.91996 24.5005 3.91996C32.606 3.91996 39.2005 10.5144 39.2005 18.62V21.56H37.2405V37.24H39.2005V42.14C39.2005 43.7609 37.8814 45.08 36.2605 45.08H26.4605V47.04H36.2605C38.9623 47.04 41.1605 44.8418 41.1605 42.14V37.24H43.1205C45.8223 37.24 48.0205 35.0418 48.0205 32.34V26.46ZM5.88047 35.28C4.25955 35.28 2.94047 33.9609 2.94047 32.34V26.46C2.94047 24.839 4.25955 23.52 5.88047 23.52H9.80047V35.28H5.88047ZM46.0605 32.34C46.0605 33.9609 44.7414 35.28 43.1205 35.28H39.2005V23.52H43.1205C44.7414 23.52 46.0605 24.839 46.0605 26.46V32.34Z" fill="#04AEFF"/>
<path d="M48.0205 26.46C48.0205 23.7581 45.8223 21.56 43.1205 21.56H41.1605V18.62C41.1605 9.43344 33.687 1.95996 24.5005 1.95996C15.3139 1.95996 7.84047 9.43344 7.84047 18.62V21.56H5.88047C3.17861 21.56 0.980469 23.7581 0.980469 26.46V32.34C0.980469 35.0418 3.17861 37.24 5.88047 37.24H11.7605V21.56H9.80047V18.62C9.80047 10.5144 16.3949 3.91996 24.5005 3.91996C32.606 3.91996 39.2005 10.5144 39.2005 18.62V21.56H37.2405V37.24H39.2005V42.14C39.2005 43.7609 37.8814 45.08 36.2605 45.08H26.4605V47.04H36.2605C38.9623 47.04 41.1605 44.8418 41.1605 42.14V37.24H43.1205C45.8223 37.24 48.0205 35.0418 48.0205 32.34V26.46ZM5.88047 35.28C4.25955 35.28 2.94047 33.9609 2.94047 32.34V26.46C2.94047 24.839 4.25955 23.52 5.88047 23.52H9.80047V35.28H5.88047ZM46.0605 32.34C46.0605 33.9609 44.7414 35.28 43.1205 35.28H39.2005V23.52H43.1205C44.7414 23.52 46.0605 24.839 46.0605 26.46V32.34Z" stroke="#04AEFF"/>
</svg>
