<svg width="100" height="100" viewBox="0 0 100 100" fill="none" xmlns="http://www.w3.org/2000/svg">
<path d="M93.75 16.1562H6.25C5.8356 16.1562 5.43817 16.3209 5.14515 16.6139C4.85212 16.9069 4.6875 17.3043 4.6875 17.7188V82.2812C4.6875 82.6956 4.85212 83.0931 5.14515 83.3861C5.43817 83.6791 5.8356 83.8438 6.25 83.8438H93.75C94.1644 83.8438 94.5618 83.6791 94.8549 83.3861C95.1479 83.0931 95.3125 82.6956 95.3125 82.2812V17.7188C95.3125 17.3043 95.1479 16.9069 94.8549 16.6139C94.5618 16.3209 94.1644 16.1562 93.75 16.1562ZM92.1875 67.1875H7.8125V63.4375H92.1875V67.1875ZM7.8125 70.3125H92.1875V73.9062H7.8125V70.3125ZM7.8125 19.2812H92.1875V60.3125H7.8125V19.2812ZM7.8125 80.7188V77.0312H92.1875V80.7188H7.8125Z" fill="#3451E0"/>
<path d="M86.5937 29.3438C85.1735 29.3273 83.8167 28.7526 82.8168 27.7439C81.8168 26.7352 81.254 25.3735 81.25 23.9531C81.25 23.5387 81.0854 23.1413 80.7924 22.8483C80.4993 22.5552 80.1019 22.3906 79.6875 22.3906H20.3125C19.8981 22.3906 19.5007 22.5552 19.2076 22.8483C18.9146 23.1413 18.75 23.5387 18.75 23.9531C18.7459 25.3842 18.1745 26.7553 17.161 27.7658C16.1476 28.7763 14.7749 29.3438 13.3438 29.3438C12.9293 29.3438 12.5319 29.5084 12.2389 29.8014C11.9459 30.0944 11.7812 30.4918 11.7812 30.9063V48.6875C11.7813 49.1019 11.9459 49.4993 12.2389 49.7924C12.5319 50.0854 12.9293 50.25 13.3438 50.25C14.0537 50.25 14.7567 50.3898 15.4126 50.6615C16.0685 50.9332 16.6645 51.3314 17.1665 51.8335C17.6686 52.3355 18.0668 52.9314 18.3385 53.5874C18.6102 54.2433 18.75 54.9463 18.75 55.6562C18.75 56.0706 18.9146 56.4681 19.2076 56.7611C19.5007 57.0541 19.8981 57.2187 20.3125 57.2187H79.6875C80.1019 57.2187 80.4993 57.0541 80.7924 56.7611C81.0854 56.4681 81.25 56.0706 81.25 55.6562C81.25 54.2224 81.8196 52.8473 82.8335 51.8335C83.8473 50.8196 85.2224 50.25 86.6562 50.25C87.0706 50.25 87.4681 50.0854 87.7611 49.7924C88.0541 49.4993 88.2188 49.1019 88.2188 48.6875V30.9063C88.2189 30.6957 88.1765 30.4873 88.0941 30.2935C88.0117 30.0997 87.891 29.9246 87.7392 29.7787C87.5875 29.6328 87.4077 29.519 87.2109 29.4443C87.0141 29.3695 86.8041 29.3353 86.5937 29.3438ZM85.0312 47.2656C83.3392 47.5868 81.783 48.4098 80.5651 49.6276C79.3473 50.8455 78.5243 52.4017 78.2031 54.0937H21.6562C21.3351 52.4017 20.5121 50.8455 19.2942 49.6276C18.0764 48.4098 16.5202 47.5868 14.8281 47.2656V32.3281C16.5198 32.012 18.0767 31.1926 19.295 29.9771C20.5133 28.7616 21.3363 27.2066 21.6562 25.5156H78.2031C78.5231 27.2066 79.3461 28.7616 80.5644 29.9771C81.7827 31.1926 83.3395 32.012 85.0312 32.3281V47.2656Z" fill="#3451E0"/>
<path d="M50.0003 38.25C49.7585 38.2459 49.528 38.147 49.3585 37.9745C49.189 37.8021 49.094 37.5699 49.094 37.3281C49.092 37.2078 49.1139 37.0883 49.1585 36.9765C49.2031 36.8648 49.2695 36.763 49.3539 36.6772C49.4382 36.5914 49.5388 36.5232 49.6498 36.4767C49.7608 36.4302 49.8799 36.4062 50.0003 36.4062C50.1218 36.4051 50.2423 36.428 50.3549 36.4736C50.4676 36.5191 50.57 36.5865 50.6565 36.6719C50.7966 36.8354 50.969 36.9683 51.1628 37.0621C51.3567 37.1559 51.5678 37.2086 51.783 37.2169C51.9982 37.2252 52.2128 37.1889 52.4133 37.1104C52.6138 37.0318 52.7959 36.9127 52.9482 36.7604C53.1004 36.6081 53.2196 36.426 53.2982 36.2255C53.3767 36.025 53.413 35.8104 53.4047 35.5952C53.3963 35.38 53.3436 35.1689 53.2499 34.975C53.1561 34.7812 53.0232 34.6088 52.8597 34.4687C52.4884 34.0955 52.0479 33.7983 51.5628 33.5937V33.2344C51.5628 32.82 51.3982 32.4225 51.1051 32.1295C50.8121 31.8365 50.4147 31.6719 50.0003 31.6719C49.5859 31.6719 49.1885 31.8365 48.8954 32.1295C48.6024 32.4225 48.4378 32.82 48.4378 33.2344V33.5937C47.5539 33.9411 46.8204 34.5882 46.3655 35.4219C45.9106 36.2556 45.7634 37.2226 45.9497 38.1539C46.1359 39.0851 46.6438 39.9212 47.3843 40.5158C48.1248 41.1103 49.0508 41.4256 50.0003 41.4062C50.1206 41.4042 50.2401 41.4261 50.3519 41.4707C50.4637 41.5153 50.5654 41.5817 50.6512 41.6661C50.737 41.7505 50.8052 41.8511 50.8517 41.962C50.8982 42.073 50.9222 42.1922 50.9222 42.3125C50.9085 42.487 50.8471 42.6545 50.7446 42.7964C50.6421 42.9383 50.5024 43.0493 50.341 43.1171C50.1796 43.1848 50.0026 43.2069 49.8295 43.1807C49.6564 43.1546 49.4938 43.0812 49.3597 42.9687C49.2144 42.8223 49.0416 42.7061 48.8512 42.6267C48.6608 42.5474 48.4566 42.5066 48.2503 42.5066C48.044 42.5066 47.8398 42.5474 47.6494 42.6267C47.459 42.7061 47.2862 42.8223 47.1409 42.9687C46.8499 43.2615 46.6865 43.6575 46.6865 44.0703C46.6865 44.4831 46.8499 44.8791 47.1409 45.1719C47.5137 45.5433 47.9538 45.8403 48.4378 46.0469V46.4062C48.4378 46.8207 48.6024 47.2181 48.8954 47.5111C49.1885 47.8041 49.5859 47.9688 50.0003 47.9688C50.4147 47.9688 50.8121 47.8041 51.1051 47.5111C51.3982 47.2181 51.5628 46.8207 51.5628 46.4062V46.0469C52.4661 45.7158 53.2212 45.0726 53.6918 44.2335C54.1623 43.3944 54.3173 42.4146 54.1286 41.4712C53.9399 40.5278 53.4201 39.683 52.663 39.0894C51.9059 38.4958 50.9614 38.1925 50.0003 38.2344V38.25Z" fill="#3451E0"/>
<path d="M50 26.7188C47.4141 26.7218 44.8871 27.4915 42.7385 28.9304C40.5898 30.3693 38.916 32.4129 37.9285 34.8029C36.9411 37.1929 36.6843 39.822 37.1907 42.3579C37.6971 44.8937 38.9439 47.2226 40.7735 49.05C42.6032 50.8775 44.9335 52.1215 47.47 52.6248C50.0064 53.1282 52.6352 52.8683 55.024 51.878C57.4128 50.8877 59.4544 49.2114 60.8908 47.0611C62.3271 44.9107 63.0938 42.3828 63.0938 39.7969C63.0855 36.3282 61.7028 33.0041 59.2486 30.5529C56.7944 28.1016 53.4687 26.7229 50 26.7188ZM50 49.75C48.0321 49.7469 46.1093 49.1605 44.4746 48.065C42.8399 46.9695 41.5666 45.4139 40.8157 43.595C40.0647 41.776 39.8699 39.7752 40.2557 37.8456C40.6415 35.9159 41.5906 34.1439 42.9832 32.7534C44.3758 31.363 46.1493 30.4166 48.0796 30.0339C50.0099 29.6511 52.0103 29.8491 53.8281 30.6029C55.6459 31.3567 57.1995 32.6324 58.2924 34.2688C59.3854 35.9053 59.9688 37.829 59.9688 39.7969C59.9688 41.1053 59.7108 42.4008 59.2096 43.6094C58.7085 44.818 57.9739 45.9159 57.048 46.8403C56.1221 47.7648 55.0231 48.4976 53.8137 48.9969C52.6043 49.4961 51.3084 49.7521 50 49.75Z" fill="#3451E0"/>
<path d="M31.4219 38.0312H28.2969C27.8825 38.0312 27.485 38.1959 27.192 38.4889C26.899 38.7819 26.7344 39.1793 26.7344 39.5938C26.7344 40.0082 26.899 40.4056 27.192 40.6986C27.485 40.9916 27.8825 41.1562 28.2969 41.1562H31.4219C31.8363 41.1562 32.2337 40.9916 32.5267 40.6986C32.8198 40.4056 32.9844 40.0082 32.9844 39.5938C32.9844 39.1793 32.8198 38.7819 32.5267 38.4889C32.2337 38.1959 31.8363 38.0312 31.4219 38.0312Z" fill="#3451E0"/>
<path d="M71.5 38.0312H68.375C67.9606 38.0312 67.5632 38.1959 67.2702 38.4889C66.9771 38.7819 66.8125 39.1793 66.8125 39.5938C66.8125 40.0082 66.9771 40.4056 67.2702 40.6986C67.5632 40.9916 67.9606 41.1562 68.375 41.1562H71.5C71.9144 41.1562 72.3118 40.9916 72.6049 40.6986C72.8979 40.4056 73.0625 40.0082 73.0625 39.5938C73.0625 39.1793 72.8979 38.7819 72.6049 38.4889C72.3118 38.1959 71.9144 38.0312 71.5 38.0312Z" fill="#3451E0"/>
</svg>
